<svg width="24" height="24" viewBox="0 0 24 24" fill="none" xmlns="http://www.w3.org/2000/svg">
  <rect width="24" height="24" rx="12" fill="#AB9FF2"/>
  <!-- Ghost body -->
  <path d="M12 4C16.4183 4 20 7.58172 20 12C20 16.4183 16.4183 20 12 20C7.58172 20 4 16.4183 4 12C4 7.58172 7.58172 4 12 4Z" fill="#AB9FF2"/>
  <!-- Ghost eyes -->
  <circle cx="9" cy="12" r="1.5" fill="white"/>
  <circle cx="15" cy="12" r="1.5" fill="white"/>
  <!-- Ghost mouth -->
  <path d="M10 16C10 16 11 18 12 18C13 18 14 16 14 16" stroke="white" stroke-width="2" stroke-linecap="round"/>
  <!-- Ghost arms -->
  <path d="M8 12C8 12 9 14 12 14C15 14 16 12 16 12" stroke="white" stroke-width="2" stroke-linecap="round"/>
</svg> 