<svg width="24" height="24" viewBox="0 0 24 24" fill="none" xmlns="http://www.w3.org/2000/svg">
  <rect width="24" height="24" rx="12" fill="url(#rainbowGradient)"/>
  <!-- Rainbow arcs -->
  <path d="M12 6C16.4183 6 20 9.58172 20 14C20 18.4183 16.4183 22 12 22C7.58172 22 4 18.4183 4 14C4 9.58172 7.58172 6 12 6Z" fill="none" stroke="white" stroke-width="2"/>
  <path d="M12 8C14.2091 8 16 10.7909 16 13C16 15.2091 14.2091 18 12 18C9.79086 18 8 15.2091 8 13C8 10.7909 9.79086 8 12 8Z" fill="none" stroke="white" stroke-width="2"/>
  <path d="M12 10C13.1046 10 14 11.8954 14 13C14 14.1046 13.1046 16 12 16C10.8954 16 10 14.1046 10 13C10 11.8954 10.8954 10 12 10Z" fill="none" stroke="white" stroke-width="2"/>
  <!-- Center circle -->
  <circle cx="12" cy="13" r="2" fill="white"/>
  <defs>
    <linearGradient id="rainbowGradient" x1="0%" y1="0%" x2="100%" y2="0%">
      <stop offset="0%" style="stop-color:#FF6B6B;stop-opacity:1" />
      <stop offset="16.67%" style="stop-color:#FFE66D;stop-opacity:1" />
      <stop offset="33.33%" style="stop-color:#4ECDC4;stop-opacity:1" />
      <stop offset="50%" style="stop-color:#45B7D1;stop-opacity:1" />
      <stop offset="66.67%" style="stop-color:#96CEB4;stop-opacity:1" />
      <stop offset="83.33%" style="stop-color:#FFEAA7;stop-opacity:1" />
      <stop offset="100%" style="stop-color:#FF6B9D;stop-opacity:1" />
    </linearGradient>
  </defs>
</svg> 